<svg width="512" height="512" viewBox="0 0 512 512" fill="none" xmlns="http://www.w3.org/2000/svg">
<path d="M512 256C512 397.385 397.385 512 256 512C114.615 512 0 397.385 0 256C0 114.615 114.615 0 256 0C397.385 0 512 114.615 512 256Z" fill="#343B6C"/>
<ellipse cx="263.475" cy="137.888" rx="120.475" ry="117.888" fill="#7F87BE"/>
<path d="M503.95 191.888C503.95 256.996 450.011 309.776 383.475 309.776C316.938 309.776 263 256.996 263 191.888C263 126.78 316.938 74 383.475 74C450.011 74 503.95 126.78 503.95 191.888Z" fill="#7F87BE"/>
<ellipse cx="263.475" cy="117.888" rx="120.475" ry="117.888" fill="white"/>
<ellipse cx="135.475" cy="117.888" rx="120.475" ry="117.888" fill="white"/>
<ellipse cx="361.475" cy="137.888" rx="120.475" ry="117.888" fill="white"/>
<ellipse cx="391.475" cy="181.888" rx="120.475" ry="117.888" fill="white"/>
</svg>
