<svg width="266" height="304" viewBox="0 0 266 304" fill="none" xmlns="http://www.w3.org/2000/svg">
<g clip-path="url(#clip0_75_48)">
<path d="M127.651 285.189L127.312 277.562C127.277 277.543 127.242 277.525 127.207 277.506C123.574 275.599 119.411 279.052 120.571 282.989C121.663 286.693 122.396 290.687 124.394 293.929C125.575 295.812 127.164 297.406 129.044 298.591C130.924 299.776 133.046 300.523 135.253 300.776L139.868 303.603C140.502 300.071 140.362 296.443 139.459 292.97C138.556 289.496 136.911 286.26 134.638 283.484C133.348 281.94 131.868 280.564 130.233 279.389C129.128 282.305 127.651 285.189 127.651 285.189Z" fill="#F2F2F2"/>
<path d="M86.3319 207.789C77.4467 198.62 64.5707 193.362 51.0056 193.362L50.4824 193.363C41.5474 193.366 32.7718 190.995 25.0532 186.492L24.25 186.023L24.8969 185.356C28.3992 181.731 31.3236 177.588 33.5676 173.073C31.9738 174.56 30.0729 175.678 27.9995 176.348C25.926 177.019 23.7306 177.225 21.5687 176.952C19.2863 176.68 17.0951 175.894 15.1596 174.653C13.224 173.413 11.5943 171.75 10.3927 169.789C5.65153 162.092 7.62939e-06 151.17 7.62939e-06 142.85C0.00738796 135.817 1.47903 128.863 4.32114 122.431C7.16325 115.999 11.3135 110.23 16.5073 105.492C19.7954 102.525 22.4218 98.8987 24.2152 94.8483C26.0085 90.798 26.9287 86.4149 26.9156 81.9849L26.9129 81.3545C26.912 75.5221 27.6244 69.7115 29.034 64.0522L29.1771 63.4807L29.7648 63.5013C33.5542 63.6303 37.3456 63.3125 41.0608 62.5544C37.576 62.1267 34.1669 61.2194 30.9302 59.8583L30.298 59.6024L30.5125 58.9543C45.3016 49.792 78.6848 54.5367 98.0614 10.1781C113.773 -25.7907 169.21 42.1076 169.21 81.3545C169.21 85.3592 165.249 90.6513 168.214 93.2982C200.267 121.911 178.151 140.285 171.178 158.773C169.523 163.16 173.111 167.975 173.111 172.721C173.111 173.526 173.09 174.357 173.05 175.191L172.988 176.474L171.919 175.762C169.805 174.376 167.845 172.768 166.073 170.964C167.911 175.197 168.778 179.788 168.608 184.4C168.439 189.012 167.238 193.527 165.095 197.613C161.736 203.957 158.486 208.499 155.436 211.111C145.665 219.477 133.07 223.793 120.225 223.175C107.38 222.558 95.2559 217.054 86.3319 207.789Z" fill="white"/>
<path d="M139.996 303.227C140.214 303.227 140.425 303.148 140.59 303.004C140.755 302.861 140.863 302.663 140.894 302.447C140.932 302.175 144.71 274.912 141.317 238.677C138.184 205.213 128.12 157.014 97.9753 117.428C97.9031 117.333 97.8128 117.253 97.7098 117.193C97.6067 117.133 97.4928 117.094 97.3745 117.078C97.2563 117.062 97.136 117.069 97.0206 117.099C96.9053 117.13 96.797 117.183 96.7021 117.255C96.6072 117.328 96.5275 117.418 96.4675 117.521C96.4075 117.624 96.3685 117.738 96.3526 117.857C96.3367 117.975 96.3443 118.095 96.3749 118.211C96.4055 118.326 96.4585 118.434 96.531 118.529C126.416 157.773 136.398 205.619 139.509 238.846C142.883 274.87 139.134 301.921 139.096 302.19C139.078 302.319 139.087 302.451 139.124 302.575C139.161 302.7 139.224 302.816 139.31 302.914C139.395 303.012 139.5 303.091 139.619 303.145C139.737 303.199 139.866 303.227 139.996 303.227Z" fill="#2A2F56"/>
<path d="M115.396 173.265C115.587 173.265 115.774 173.205 115.93 173.092C116.085 172.979 116.2 172.82 116.26 172.638C116.319 172.455 116.319 172.259 116.26 172.076C116.201 171.894 116.085 171.735 115.93 171.622C115.821 171.542 104.793 163.592 88.3061 157.552C73.0654 151.969 49.8897 146.907 26.0307 154.505C25.9169 154.541 25.8114 154.599 25.7201 154.676C25.6288 154.753 25.5535 154.847 25.4986 154.953C25.4437 155.059 25.4102 155.175 25.4001 155.294C25.39 155.413 25.4034 155.533 25.4395 155.647C25.4757 155.76 25.534 155.866 25.611 155.957C25.688 156.048 25.7822 156.123 25.8882 156.178C25.9943 156.233 26.1101 156.266 26.229 156.276C26.3479 156.286 26.4676 156.273 26.5813 156.236C49.9515 148.794 72.7071 153.772 87.6818 159.258C103.933 165.212 114.755 173.014 114.863 173.092C115.017 173.205 115.204 173.265 115.396 173.265Z" fill="#2A2F56"/>
<path d="M156.948 69.7136C156.962 69.5222 156.915 69.3313 156.814 69.1683C156.712 69.0053 156.562 68.8785 156.385 68.8061C156.207 68.7337 156.011 68.7195 155.825 68.7654C155.639 68.8114 155.472 68.9151 155.348 69.0618C155.261 69.1653 146.541 79.5986 139.333 95.6171C132.67 110.425 125.956 133.19 131.812 157.548C131.868 157.782 132.015 157.985 132.22 158.11C132.426 158.236 132.673 158.275 132.907 158.219C133.141 158.162 133.343 158.015 133.469 157.81C133.594 157.605 133.633 157.357 133.577 157.123C127.842 133.264 134.442 110.913 140.989 96.3631C148.094 80.5731 156.651 70.3346 156.736 70.233C156.86 70.0866 156.934 69.9047 156.948 69.7136Z" fill="#2A2F56"/>
<path d="M155.719 116.555C156.485 122.738 160.767 127.837 166.995 127.837C169.985 127.837 172.853 126.648 174.968 124.532C177.083 122.417 178.271 119.547 178.271 116.555C178.271 110.323 173.195 105.848 166.995 105.272C160.415 104.661 154.736 108.615 155.719 116.555Z" fill="#2F2E41"/>
<path d="M172.217 298.258L176.511 298.257L178.554 281.685L172.216 281.686L172.217 298.258Z" fill="#FFB6B6"/>
<path d="M172.066 302.74L185.271 302.739V302.572C185.271 301.208 184.729 299.9 183.765 298.936C182.801 297.971 181.494 297.43 180.131 297.429L177.719 295.599L173.219 297.43L172.066 297.43L172.066 302.74Z" fill="#2F2E41"/>
<path d="M155.304 298.258L159.598 298.257L161.64 281.685L155.303 281.686L155.304 298.258Z" fill="#FFB6B6"/>
<path d="M155.153 302.74L168.357 302.739V302.572C168.357 301.208 167.815 299.9 166.852 298.936C165.888 297.971 164.581 297.43 163.218 297.429L160.805 295.599L156.305 297.43L155.152 297.43L155.153 302.74Z" fill="#2F2E41"/>
<path d="M186.994 194.463L190.029 204.878L186.453 248.986C186.453 248.986 188.295 251.743 186.994 251.743C185.693 251.743 184.024 252.355 185.075 254.002C186.126 255.649 182.534 261.561 182.534 261.561L177.453 292.967L170.978 292.872C170.978 292.872 167.686 291.037 169.534 289.181C171.381 287.326 172.682 287.326 170.947 285.59C169.213 283.855 169.213 284.377 169.213 283.031C169.213 281.685 167.475 265.233 171.596 258.922L170.354 233.192L167.429 258.43L161.406 292.099L155.169 292.048C155.169 292.048 152.288 289.27 152.294 287.213C152.299 285.156 154.074 284.986 152.753 283.769C151.432 282.553 151.432 263.866 155.335 253.479C155.335 253.479 157.543 247.676 155.33 245.687C153.117 243.698 155.327 241.423 155.327 241.423C155.327 241.423 158.832 240.155 155.324 236.502C151.816 232.85 155.305 207.017 155.305 207.017C155.305 207.017 151.47 196.589 155.354 192.489C159.238 188.388 186.994 194.463 186.994 194.463Z" fill="#2F2E41"/>
<path d="M132.925 212.407L138.341 199.309L142.608 201.682L140.031 215.005C140.289 215.849 140.307 216.748 140.082 217.602C139.858 218.455 139.399 219.229 138.759 219.837C138.119 220.444 137.322 220.86 136.458 221.039C135.594 221.218 134.698 221.153 133.869 220.85C133.04 220.547 132.313 220.019 131.768 219.325C131.223 218.631 130.882 217.798 130.784 216.921C130.686 216.044 130.834 215.156 131.212 214.359C131.59 213.561 132.183 212.885 132.925 212.407Z" fill="#FFB6B6"/>
<path d="M223.813 108.838L215.572 120.367L211.952 117.089L217.48 104.697C217.419 103.816 217.606 102.936 218.018 102.156C218.43 101.375 219.052 100.725 219.813 100.279C220.574 99.8325 221.444 99.6075 222.326 99.629C223.208 99.6505 224.067 99.9177 224.805 100.401C225.544 100.884 226.133 101.563 226.506 102.363C226.88 103.162 227.023 104.05 226.92 104.927C226.817 105.804 226.472 106.634 225.923 107.325C225.374 108.016 224.643 108.54 223.813 108.838Z" fill="#FFB6B6"/>
<path d="M187.812 195.531C193.157 203.827 166.287 214.356 155.977 210.129C154.172 209.389 147.962 206.944 152.207 203.555C156.451 200.166 151.715 199.689 151.603 197.482C151.528 196.007 152.669 192.772 151.478 192.91C150.287 193.049 148.894 191.009 151.487 190.131C154.081 189.254 151.515 188.453 151.538 187.62C151.786 178.527 158.758 164.063 158.758 164.063L146.194 196.199C146.194 196.199 146.287 201.758 144.685 200.06C143.083 198.361 143.199 203.859 143.199 203.859C143.199 203.859 140.817 205.523 142.187 206.449C143.557 207.375 140.712 210.222 140.712 210.222L134.074 209.747C134.074 209.747 134.177 204.813 135.311 203.722C136.444 202.63 135.888 200.913 135.888 200.913C135.888 200.913 138.839 198.3 136.86 196.177C134.316 193.448 143.593 147.346 146.794 147.803C147.247 145.599 148.3 143.563 149.837 141.92C151.374 140.277 153.334 139.092 155.503 138.494L162.672 136.519L163.946 131.465H174.041L175.799 134.786L183.475 138.251C184.92 136.21 186.001 134.06 191.921 133.362C191.921 133.362 207.873 118.84 207.094 117.706C206.315 116.572 208.788 113.917 208.788 113.917C208.788 113.917 210.9 113.226 209.708 112.856C208.516 112.487 210.769 111.633 210.769 111.633C210.769 111.633 212.855 111.085 211.871 110.363C210.887 109.641 215.155 109.166 215.155 109.166L220.691 113.686L219.572 115.585C219.572 115.585 220.255 118.17 219.364 117.227C218.474 116.283 218.306 119.022 218.306 119.022C218.306 119.022 217.851 122.021 215.155 122.925C212.458 123.828 210.413 132.414 210.413 132.414C204.053 140.688 196.548 147.142 187.653 151.391C191.12 155.372 187.812 195.531 187.812 195.531Z" fill="#2A2F56"/>
<path d="M168.241 128.507C173.763 128.507 178.24 124.028 178.24 118.502C178.24 112.977 173.763 108.497 168.241 108.497C162.719 108.497 158.242 112.977 158.242 118.502C158.242 124.028 162.719 128.507 168.241 128.507Z" fill="#FFB6B6"/>
<path d="M157.887 119.592C158.204 121.766 160.056 124.799 159.622 124.799C159.189 124.799 156.105 115.837 159.189 115.253C161.425 114.829 161.925 115.201 164.015 114.294L163.72 114.571C165.104 115.578 167.029 114.958 168.608 114.302C170.191 113.652 172.112 113.031 173.5 114.033C174.372 114.663 174.74 115.756 175.282 116.685C175.825 117.618 176.826 118.499 177.859 118.212C178.687 117.982 179.164 117.054 179.16 116.194C179.155 115.335 178.037 114.518 178.414 113.747C179.53 111.463 178.526 109.905 176.093 108.83C175.209 108.696 174.324 108.559 173.439 108.418C173.903 107.776 174.465 107.21 175.105 106.743C174.834 106.05 174.367 105.451 173.76 105.02C173.053 104.6 172.177 104.63 171.358 104.673C169.527 104.769 167.699 104.864 165.872 104.96C164.518 105.029 163.118 105.112 161.908 105.732C160.399 106.509 159.41 108.023 158.69 109.564C157.076 113.027 157.332 115.813 157.887 119.592Z" fill="#2F2E41"/>
<path d="M80.7267 258.828C80.9079 257.581 79.603 256.359 77.8119 256.098C76.0208 255.838 74.4219 256.637 74.2406 257.884C74.0593 259.13 75.3643 260.352 77.1554 260.613C78.9465 260.874 80.5454 260.074 80.7267 258.828Z" fill="white"/>
<path d="M102.051 256.746C102.233 255.499 100.928 254.277 99.1367 254.016C97.3456 253.755 95.7467 254.555 95.5654 255.801C95.3841 257.048 96.6891 258.27 98.4802 258.531C100.271 258.792 101.87 257.992 102.051 256.746Z" fill="#343B6C"/>
<path d="M74.8873 241.554C75.0686 240.307 73.7636 239.085 71.9725 238.824C70.1814 238.563 68.5825 239.363 68.4012 240.609C68.22 241.856 69.5249 243.078 71.316 243.339C73.1071 243.599 74.706 242.8 74.8873 241.554Z" fill="#B4BCF4"/>
<path d="M65.6212 234.478C65.6298 233.333 64.9917 232.4 64.196 232.394C63.4003 232.388 62.7482 233.311 62.7396 234.456C62.7309 235.6 63.369 236.533 64.1647 236.539C64.9604 236.545 65.6125 235.622 65.6212 234.478Z" fill="white"/>
<path d="M62.4788 221.298C62.4874 220.154 61.8494 219.221 61.0537 219.215C60.258 219.209 59.6059 220.132 59.5972 221.277C59.5886 222.421 60.2266 223.354 61.0224 223.36C61.8181 223.366 62.4701 222.443 62.4788 221.298Z" fill="#343B6C"/>
<path d="M86.9147 244.493C86.9233 243.349 86.2853 242.416 85.4896 242.41C84.6938 242.404 84.0418 243.327 84.0331 244.471C84.0245 245.616 84.6625 246.549 85.4582 246.555C86.254 246.561 86.906 245.638 86.9147 244.493Z" fill="white"/>
<path d="M76.6096 249.641C76.6182 248.497 75.9802 247.564 75.1845 247.558C74.3887 247.552 73.7367 248.475 73.728 249.62C73.7194 250.764 74.3574 251.697 75.1531 251.703C75.9489 251.709 76.6009 250.786 76.6096 249.641Z" fill="#B4BCF4"/>
<path d="M90.9546 259.157C90.9633 258.012 90.3252 257.079 89.5295 257.073C88.7338 257.067 88.0817 257.99 88.0731 259.135C88.0644 260.279 88.7025 261.212 89.4982 261.218C90.2939 261.224 90.946 260.301 90.9546 259.157Z" fill="#343B6C"/>
<path d="M244.658 192.001C244.84 190.755 243.535 189.533 241.744 189.272C239.953 189.011 238.354 189.81 238.172 191.057C237.991 192.304 239.296 193.526 241.087 193.787C242.878 194.047 244.477 193.248 244.658 192.001Z" fill="white"/>
<path d="M265.983 189.919C266.165 188.673 264.859 187.451 263.068 187.19C261.277 186.929 259.678 187.728 259.497 188.975C259.316 190.222 260.621 191.444 262.412 191.705C264.203 191.965 265.802 191.166 265.983 189.919Z" fill="#343B6C"/>
<path d="M238.819 174.727C239 173.48 237.695 172.258 235.904 171.998C234.113 171.737 232.514 172.536 232.333 173.783C232.151 175.03 233.456 176.252 235.247 176.512C237.038 176.773 238.637 175.974 238.819 174.727Z" fill="#B4BCF4"/>
<path d="M229.553 167.651C229.562 166.507 228.923 165.574 228.128 165.568C227.332 165.562 226.68 166.485 226.671 167.629C226.663 168.774 227.301 169.707 228.096 169.713C228.892 169.719 229.544 168.796 229.553 167.651Z" fill="white"/>
<path d="M226.411 154.472C226.419 153.327 225.781 152.395 224.985 152.389C224.19 152.383 223.538 153.306 223.529 154.45C223.52 155.595 224.158 156.527 224.954 156.533C225.75 156.539 226.402 155.616 226.411 154.472Z" fill="#343B6C"/>
<path d="M250.846 177.667C250.855 176.522 250.217 175.589 249.421 175.583C248.626 175.577 247.974 176.5 247.965 177.645C247.956 178.789 248.594 179.722 249.39 179.728C250.186 179.734 250.838 178.811 250.846 177.667Z" fill="white"/>
<path d="M240.541 182.815C240.55 181.67 239.912 180.738 239.116 180.732C238.321 180.726 237.668 181.649 237.66 182.793C237.651 183.938 238.289 184.87 239.085 184.876C239.881 184.882 240.533 183.959 240.541 182.815Z" fill="#B4BCF4"/>
<path d="M254.886 192.33C254.895 191.186 254.257 190.253 253.461 190.247C252.666 190.241 252.013 191.164 252.005 192.308C251.996 193.453 252.634 194.386 253.43 194.392C254.226 194.398 254.878 193.475 254.886 192.33Z" fill="#343B6C"/>
<path d="M165.295 68.3291C165.476 67.0824 164.171 65.8603 162.38 65.5996C160.589 65.3388 158.99 66.1381 158.809 67.3848C158.627 68.6315 159.932 69.8536 161.723 70.1143C163.514 70.3751 165.113 69.5758 165.295 68.3291Z" fill="white"/>
<path d="M186.619 66.247C186.801 65.0003 185.496 63.7783 183.705 63.5175C181.914 63.2568 180.315 64.056 180.133 65.3028C179.952 66.5495 181.257 67.7715 183.048 68.0322C184.839 68.293 186.438 67.4937 186.619 66.247Z" fill="#343B6C"/>
<path d="M159.455 51.0548C159.637 49.8081 158.332 48.5861 156.54 48.3253C154.749 48.0646 153.15 48.8638 152.969 50.1105C152.788 51.3572 154.093 52.5793 155.884 52.84C157.675 53.1008 159.274 52.3015 159.455 51.0548Z" fill="#B4BCF4"/>
<path d="M150.189 43.979C150.198 42.8345 149.56 41.9018 148.764 41.8958C147.968 41.8897 147.316 42.8127 147.308 43.9572C147.299 45.1017 147.937 46.0344 148.733 46.0405C149.528 46.0465 150.18 45.1235 150.189 43.979Z" fill="#E6E6E6"/>
<path d="M147.047 30.7996C147.055 29.6551 146.417 28.7224 145.622 28.7164C144.826 28.7103 144.174 29.6333 144.165 30.7778C144.157 31.9223 144.795 32.855 145.59 32.8611C146.386 32.8671 147.038 31.9441 147.047 30.7996Z" fill="#2A2F56"/>
<path d="M171.483 53.9944C171.491 52.8499 170.853 51.9172 170.058 51.9112C169.262 51.9052 168.61 52.8281 168.601 53.9726C168.592 55.1172 169.23 56.0499 170.026 56.0559C170.822 56.0619 171.474 55.139 171.483 53.9944Z" fill="#E6E6E6"/>
<path d="M161.178 59.1427C161.186 57.9981 160.548 57.0655 159.752 57.0594C158.957 57.0534 158.305 57.9763 158.296 59.1209C158.287 60.2654 158.925 61.1981 159.721 61.2041C160.517 61.2101 161.169 60.2872 161.178 59.1427Z" fill="#B4BCF4"/>
<path d="M175.523 68.6579C175.531 67.5134 174.893 66.5807 174.097 66.5747C173.302 66.5687 172.65 67.4916 172.641 68.6361C172.632 69.7806 173.27 70.7134 174.066 70.7194C174.862 70.7254 175.514 69.8025 175.523 68.6579Z" fill="#343B6C"/>
</g>
<defs>
<clipPath id="clip0_75_48">
<rect width="266" height="304" fill="white"/>
</clipPath>
</defs>
</svg>
